<svg xmlns="http://www.w3.org/2000/svg" version="1.1" xmlns:xlink="http://www.w3.org/1999/xlink" xmlns:svgjs="http://svgjs.dev/svgjs" width="1440" height="560" preserveAspectRatio="none" viewBox="0 0 1440 560"><g clip-path="url(&quot;#SvgjsClipPath1303&quot;)" fill="none"><rect width="1440" height="560" x="0" y="0" fill="url(&quot;#SvgjsLinearGradient1304&quot;)"></rect><circle r="93.335" cx="-0.17" cy="-88.45" stroke="#365aa3" stroke-opacity="0.25" stroke-width="2"></circle><circle r="93.335" cx="323.92" cy="431.78" stroke="#365aa3" stroke-opacity="0.25" stroke-width="2"></circle><circle r="93.335" cx="654.02" cy="825.28" stroke="#365aa3" stroke-opacity="0.25" stroke-width="2"></circle><circle r="122.67" cx="75.9" cy="512.91" stroke="#365aa3" stroke-opacity="0.25" stroke-width="2"></circle><circle r="110.41" cx="190.36" cy="299.9" stroke="#365aa3" stroke-opacity="0.25" stroke-width="2"></circle><circle r="57.745" cx="612.61" cy="247.4" stroke="#365aa3" stroke-opacity="0.25" stroke-width="2"></circle><circle r="51.26" cx="200.31" cy="111.02" stroke="#365aa3" stroke-opacity="0.25" stroke-width="2"></circle><circle r="176.535" cx="358.16" cy="272.47" stroke="#365aa3" stroke-opacity="0.25" stroke-width="2"></circle><circle r="138.665" cx="473.24" cy="550.33" stroke="#365aa3" stroke-opacity="0.25" stroke-width="2"></circle><circle r="49.845" cx="350.93" cy="69.37" stroke="#365aa3" stroke-opacity="0.25" stroke-width="2"></circle><circle r="180.13" cx="693.36" cy="333.19" stroke="#365aa3" stroke-opacity="0.25" stroke-width="2"></circle><circle r="78.55" cx="519.28" cy="538.64" stroke="#365aa3" stroke-opacity="0.25" stroke-width="2"></circle><circle r="55.915" cx="305.48" cy="528.43" stroke="#365aa3" stroke-opacity="0.25" stroke-width="2"></circle><circle r="96.83" cx="96.62" cy="553.81" stroke="#365aa3" stroke-opacity="0.25" stroke-width="2"></circle><circle r="66.405" cx="1086.22" cy="541.5" stroke="#365aa3" stroke-opacity="0.25" stroke-width="2"></circle><circle r="120.975" cx="828.54" cy="53.16" stroke="#365aa3" stroke-opacity="0.25" stroke-width="2"></circle><circle r="77.5" cx="544.97" cy="305.17" stroke="#365aa3" stroke-opacity="0.25" stroke-width="2"></circle><circle r="175.29" cx="22.64" cy="283.48" stroke="#365aa3" stroke-opacity="0.25" stroke-width="2"></circle><circle r="101.72" cx="1179.67" cy="119.81" stroke="#365aa3" stroke-opacity="0.25" stroke-width="2"></circle><circle r="141.19" cx="983.32" cy="318.46" stroke="#365aa3" stroke-opacity="0.25" stroke-width="2"></circle><circle r="103.52" cx="531.68" cy="321.35" stroke="#365aa3" stroke-opacity="0.25" stroke-width="2"></circle><circle r="167.71" cx="1309.66" cy="216.95" stroke="#365aa3" stroke-opacity="0.25" stroke-width="2"></circle><circle r="174.675" cx="1153.17" cy="488.72" stroke="#365aa3" stroke-opacity="0.25" stroke-width="2"></circle><circle r="108.695" cx="900.38" cy="536.43" stroke="#365aa3" stroke-opacity="0.25" stroke-width="2"></circle><circle r="61.745" cx="1163.47" cy="400.91" stroke="#365aa3" stroke-opacity="0.25" stroke-width="2"></circle><circle r="120.055" cx="289.83" cy="197.63" stroke="#365aa3" stroke-opacity="0.25" stroke-width="2"></circle><circle r="67.89" cx="1285.65" cy="557.48" stroke="#365aa3" stroke-opacity="0.25" stroke-width="2"></circle><circle r="48.41" cx="723.68" cy="267.39" stroke="#365aa3" stroke-opacity="0.25" stroke-width="2"></circle><circle r="103.645" cx="562.1" cy="547.11" stroke="#365aa3" stroke-opacity="0.25" stroke-width="2"></circle><circle r="82.22" cx="1317.24" cy="524.22" stroke="#365aa3" stroke-opacity="0.25" stroke-width="2"></circle><circle r="106.53" cx="1256.72" cy="346.91" stroke="#365aa3" stroke-opacity="0.25" stroke-width="2"></circle><circle r="65.85" cx="1330.65" cy="394.84" stroke="#365aa3" stroke-opacity="0.25" stroke-width="2"></circle><circle r="112.975" cx="868.27" cy="529.82" stroke="#365aa3" stroke-opacity="0.25" stroke-width="2"></circle><circle r="67.05" cx="1133.08" cy="552.77" stroke="#365aa3" stroke-opacity="0.25" stroke-width="2"></circle><circle r="132.375" cx="1001.01" cy="348.98" stroke="#365aa3" stroke-opacity="0.25" stroke-width="2"></circle><circle r="155.51" cx="1411.8" cy="236.42" stroke="#365aa3" stroke-opacity="0.25" stroke-width="2"></circle><circle r="93.01" cx="500.48" cy="257.71" stroke="#365aa3" stroke-opacity="0.25" stroke-width="2"></circle><circle r="157.845" cx="23.26" cy="463.06" stroke="#365aa3" stroke-opacity="0.25" stroke-width="2"></circle><circle r="184.93" cx="717.59" cy="431.06" stroke="#365aa3" stroke-opacity="0.25" stroke-width="2"></circle><circle r="132.845" cx="222.9" cy="136.19" stroke="#365aa3" stroke-opacity="0.25" stroke-width="2"></circle></g><defs><clipPath id="SvgjsClipPath1303"><rect width="1440" height="560" x="0" y="0"></rect></clipPath><linearGradient x1="50%" y1="0%" x2="50%" y2="100%" gradientUnits="userSpaceOnUse" id="SvgjsLinearGradient1304"><stop stop-color="#0e2a47" offset="0"></stop><stop stop-color="rgba(0, 75, 158, 1)" offset="1"></stop></linearGradient></defs></svg>